<?xml version="1.0" encoding="utf-8"?>
<!-- Generator: Adobe Illustrator 19.2.1, SVG Export Plug-In . SVG Version: 6.00 Build 0)  -->
<svg version="1.1" width="150px" height="80px" id="layer" xmlns="http://www.w3.org/2000/svg" xmlns:xlink="http://www.w3.org/1999/xlink" x="0px" y="0px"
	 viewBox="0 0 652 652" style="enable-background:new 0 0 652 652;" xml:space="preserve">
<style type="text/css">
	.st0{fill:#7FCB28;}
</style>
<g>
	<path class="st0" d="M455.2,260.9L455.2,260.9c-4.8-0.9,13.8-7.9,14.3-10.8c0-2.9-31.5,14.3-31.5,14.3c-10.8-2.9-27.9-3.9-27.9-3.9
		c0.5-5,0.5-9.4-0.5-12.8c2,0.5,4.4,2,8.8,2.9c2.9,0.9,31.4,6.9,32.4,5.5c0.5-1.1-9.9-4-8.9-6c1-1.4,16.2-3.9,16.2-5.8
		c0-1.5-14.2-0.5-13.8-2c0.5-1,8.9-7.4,8.4-8.4c-1-1.4-14.2,7.4-19.6,8c-5.6,0.5-17.2-1.5-17.2-1.5s0-0.5-0.5-0.5
		c1.5-0.5,2.4-1.2,2.9-1.6c1.4,0.5,27.4-6.8,29.5-13.1c-1.6,1-1.6,1,0-0.5v0.5c1.4-1.5,4.4-4.1,6.3-8c4.8-6.8-16.7-14.8-19.1-16.2
		c-1.5-1-2-2.9-2.9-6.3c-1-4.8-4.6-9.4-10.8-7.9c-7.3,2.1-5.4,8.9-17.2,7.4c-3.4-0.5-16.7,3.9-28.4,5.4c-11.8-1-24-1.5-30.5-1.5
		c-16.2,0-36.3,21.1-43.1,27.6c-3.9,1.5-6.8,2.9-8.8,3.4c0,0-29.5,0.5-58.4,25.5c0,0-24.2,39.4-28.5,45.7c0,0-22.5,0-38.7-5.8
		c-8.8-3.4-28.4-19.1-30.3-19.7c-2.6,0,6.8,7.8,4.8,7.8c-2.4-0.5-16.7-10.9-18.6-10.4c-1.5,0.7,9.2,9.4,6.8,8.9
		c-9.2-2.9-18.2-8.9-22.1-7.3c-1.4,0.5,10.9,7.3,6.9,8.8c-4.4,1.9-18.7,0-19.7,1.4c-2.4,3.4,105.1,29,113.9,26.1
		c8.9-2.9,41.2-46.7,49.6-50.1c11.6,0.5,25.4-1,25.4-1l5.9,7.3c0,0-0.5,18.7-3.4,27.1c-0.5,0.5-0.5,1-0.5,1.4
		c-4.4,2.5-34.9,20.6-50.9,32.5c0,0-10.4,27.4-10.9,41.2c-0.5,8.9,8.8,36.8,15.7,60c3.9,13.8,6.3,29,7.8,29.5c2.5,0-1.4-20.8,0-24.7
		c1.5-2.4,9.4,11.9,10.4,10.4c1.5-1.4-5.5-16.7-7-25.1c-0.9-4.4,7.5,10.4,8,8.4c0.5-0.9-7-16.7-8-23.6c-0.5-2.4,6,7.4,6.5,6
		c1.4-5-21.1-33.9-21.1-42.3c-0.5-8.3,1-25.5,6.3-31c5.8-5.4,33.9-11.2,49.6-25c0,0,10.3-3.9,28.9-42.9c22.5,7.4,51.1-4.4,71.2-15.2
		c3.4,6.5,9.7,12.8,12.2,14.2c5,2.5,23.1,9.4,30,9.9c6.3,1,18.2,1.4,19.6-0.5c1.4-2-15.7-1-8-6.9c8.4-6.3,22.7-5.9,23.2-7.3
		C470.9,260.9,459.6,261.4,455.2,260.9z"/>
</g>
<path d="M27.5,298.2L27.5,298.2c4.4-4.8,8.8-7.3,15.2-7.3c11.7,0,20.6,9.7,20.6,22.5c0,13.3-8.9,23-21,23c-6,0-10.9-2.4-14.8-7.3
	v5.8H20v-75.6h7.4V298.2z M26.9,313.5L26.9,313.5c0,9.2,5.9,16.2,14.3,16.2c8.2,0,14.1-7,14.1-15.7c0-9.4-5.9-16.2-14.1-16.2
	C32.8,297.7,26.9,304,26.9,313.5z"/>
<path d="M79.5,317.3L79.5,317.3c0,3.9,0.5,6,1.4,8c1.4,2.9,4.4,4.4,8.3,4.4c3.9,0,6.8-1.4,8.2-4.4c1.2-2,1.6-4.1,1.6-8v-25.4h7.3
	v25.9c0,6.5-1,9.9-3.9,13.3c-3.4,3.4-8,5.4-13.3,5.4c-5.4,0-9.7-2-13.3-5.4c-2.9-3.4-3.9-6.8-3.9-13.3v-25.9h7.5V317.3z"/>
<polygon points="125.6,335 125.6,335 118.3,335 118.3,259.4 125.6,259.4 "/>
<polygon points="145.6,335 145.6,335 138.4,335 138.4,259.4 145.6,259.4 "/>
<path d="M167.3,335L167.3,335h-7.3v-36.3h-4.1v-6.8h4.1v-18.2c0-5.6,1-8.9,2.9-11.4c1.9-2.9,5.3-4.4,9.7-4.4c1.9,0,3.5,0,5.5,1v7.3
	c-2-0.5-3.1-1-5-1c-4.4,0-5.8,2-5.8,9.9v16.7h10.8v6.8h-10.8V335z"/>
<path d="M192.2,291.9L192.2,291.9v4.8c4.1-4.8,5.5-5.8,9.9-5.8c2.5,0,3.9,0.5,6.3,2l-3.4,6.8c-2-1.5-2.4-1.5-4.4-1.5
	c-2.9,0-5.5,1.5-7,3.9c-1,2-1.4,5-1.4,10.4V335h-7.3v-43.1H192.2z"/>
<path d="M256.6,313.9L256.6,313.9c0,12.8-10.3,22.5-23.2,22.5c-12.6,0-23-10.2-23-23c0-12.3,10.4-22.5,23-22.5
	C246.2,290.9,256.6,300.6,256.6,313.9z M218.3,313.5L218.3,313.5c0,9.2,6.3,16.2,15,16.2c8.9,0,15.3-6.3,15.3-15.7
	c0-9.4-6.3-16.2-15.3-16.2C224.6,297.7,218.3,304.5,218.3,313.5z"/>
<path d="M308,336.4L308,336.4c0,8.4-1,12.8-3.9,16.7c-3.9,5.5-10.3,8.4-17.2,8.4c-14.3,0-21.1-8.9-21.1-21.1h7.4
	c0,3.4,0.5,6.3,2,8.3c2,3.9,6.8,5.8,11.7,5.8c8.9,0,13.8-5.8,13.8-17.2v-8.2c-4.4,4.8-9.4,7.3-15.3,7.3c-11.6,0-20.6-9.7-20.6-22.5
	c0-13.3,8.9-23,21.1-23c5.8,0,10.4,2.4,14.8,7.3v-6.3h7.3V336.4z M272.2,313.5L272.2,313.5c0,9.2,6,16.2,14.2,16.2
	c8.4,0,14.8-7,14.8-15.7c0-9.9-6.3-16.2-14.8-16.2C278.6,297.7,272.2,304.5,272.2,313.5z"/>
<path d="M321.3,362.1L321.3,362.1v-71.2h12.3v5.8c3.9-4.8,8.2-7.3,14.6-7.3c12.3,0,21.6,10.3,21.6,23.5c0,13.3-9.2,23.5-21.6,23.5
	c-5.8,0-10.2-2-14.6-6.8v32.5H321.3z M332.1,312.9L332.1,312.9c0,6.9,5.9,12.8,12.7,12.8c6.5,0,12.3-5.9,12.3-12.3
	c0-7.3-5.4-12.8-12.9-12.8C337.5,300.6,332.1,306.1,332.1,312.9z"/>
<path d="M427.6,312.9L427.6,312.9c0,14.3-10.6,23.5-25.9,23.5c-14.8,0-25-9.7-25-24c0-13.3,10.7-23.1,25.5-23.1
	C417.4,289.4,427.6,299.1,427.6,312.9z M390,312.9L390,312.9c0,6.9,5.4,12.8,12.2,12.8c6.9,0,12.8-5.9,12.8-12.8
	c0-6.8-5.9-12.3-12.8-12.3C395.4,300.6,390,306.1,390,312.9z"/>
<polygon points="454.7,311 454.7,311 469.5,289.9 484.1,311 496,290.9 509.7,290.9 484.1,336 469.5,310.1 454.7,336 429.3,290.9 
	442.9,290.9 "/>
<path d="M524.3,314.9L524.3,314.9c0,7.8,4.1,11.8,10.8,11.8c4.4,0,7.8-1.4,10.4-6l11.7,2c-3.9,9.4-11.2,13.8-21.6,13.8
	c-14.8,0-24-9.2-24-23.5c0-14.2,9.3-23.5,23.1-23.5c14.2,0,23,9.3,23,24v1.4H524.3z M545.5,307.1L545.5,307.1
	c-1.1-5.5-5-8.9-10.4-8.9c-5.4,0-9.2,3.5-10.4,8.9H545.5z"/>
<path d="M579.3,290.9L579.3,290.9v6.8c2.9-5.8,7.5-8.3,12.9-8.3c1.9,0,3.4,0.5,5.4,1.5l-1.5,11.2c-2.4-1-3.4-1.4-5.8-1.4
	c-7.4,0-10.9,4.4-10.9,13.3V335h-12.2v-44.1H579.3z"/>
<path d="M613.2,286.3L613.2,286.3c3.9,0,6.9,3.1,6.9,7c0,3.9-2.9,6.8-6.9,6.8c-3.9,0-6.8-2.9-6.8-6.8
	C606.4,289.4,609.3,286.3,613.2,286.3z M613.2,287.3L613.2,287.3c-2.9,0-5.4,3.1-5.4,6c0,3.4,2.5,5.8,5.4,5.8c2.9,0,5.4-2.4,5.4-5.8
	C618.5,290.4,616.1,287.3,613.2,287.3z M611.7,297.3L611.7,297.3h-1v-7.3c0.5-0.5,1-0.5,2-0.5c1.4,0,2,0.5,2.4,0.5
	c0.5,0.5,0.5,1,0.5,2c0,1-0.5,1.4-1.5,1.4v0.5c1,0,1.5,0.5,1.5,1.5c0,1.4,0.5,2,0.5,2h-1.4c0,0,0-1-0.5-2c0-1-0.5-1.5-1.4-1.5h-1
	V297.3z M611.7,293.3L611.7,293.3h1c1,0,2-0.5,2-1.4c0-0.5-0.5-1.5-2-1.5c-0.5,0-0.5,0-1,0V293.3z"/>
</svg>
