<?xml version="1.0" encoding="UTF-8"?>
<svg width="18px" height="18px" viewBox="0 0 18 18" version="1.1" xmlns="http://www.w3.org/2000/svg" xmlns:xlink="http://www.w3.org/1999/xlink">
    <!-- Generator: sketchtool 57.1 (101010) - https://sketch.com -->
    <title>EA6DC431-3395-4363-B90A-8549F2A98A7D</title>
    <desc>Created with sketchtool.</desc>
    <g id="View-ports" stroke="none" stroke-width="1" fill="none" fill-rule="evenodd">
        <g id="Header-Public-1280" transform="translate(-773.000000, -52.000000)" fill="#FFFFFF" fill-rule="nonzero">
            <g id="Header-1280">
                <g id="Group-6" transform="translate(308.000000, 43.000000)">
                    <g id="Search-bar-/-Regular">
                        <g id="searchbutton">
                            <g>
                                <g transform="translate(444.000000, 0.000000)">
                                    <path d="M39,25.834753 L34.7989779,21.6337308 C35.8722317,20.2844974 36.5468484,18.5979557 36.5468484,16.758092 C36.5468484,12.4957411 33.0511073,9 28.758092,9 C24.4650767,9 21,12.4957411 21,16.758092 C21,21.0204429 24.4957411,24.5468484 28.758092,24.5468484 C30.5979557,24.5468484 32.3151618,23.9028961 33.6337308,22.7989779 L37.834753,27 L39,25.834753 Z M21.8279387,16.758092 C21.8279387,12.9250426 24.9250426,9.82793867 28.758092,9.82793867 C32.5911414,9.82793867 35.7189097,12.9250426 35.7189097,16.758092 C35.7189097,20.5911414 32.5911414,23.7189097 28.758092,23.7189097 C24.9250426,23.7189097 21.8279387,20.5911414 21.8279387,16.758092 Z" id="Shape"></path>
                                </g>
                            </g>
                        </g>
                    </g>
                </g>
            </g>
        </g>
    </g>
</svg>