<?xml version="1.0" encoding="UTF-8"?>
<svg width="140px" height="28px" viewBox="0 0 154 28" version="1.1" xmlns="http://www.w3.org/2000/svg" xmlns:xlink="http://www.w3.org/1999/xlink">
    <!-- Generator: sketchtool 57.1 (101010) - https://sketch.com -->
    <title>07ACED44-5604-4190-9725-2559ED292D77</title>
    <desc>Created with sketchtool.</desc>
    <g id="View-ports" stroke="none" stroke-width="1" fill="none" fill-rule="evenodd">
        <g id="Header-Login-1440" transform="translate(-22.000000, -46.000000)" fill="#CB2026" fill-rule="nonzero">
            <g id="header">
                <g id="staples_logo_transparent">
                    <g transform="translate(22.000000, 46.000000)">
                        <path d="M55.8822403,9.00183908 C53.597332,8.5062069 51.2512627,7.98321839 51.2512627,6.09563218 C51.2512627,4.01494253 53.3856212,3.57885057 55.2094705,3.57885057 C57.1145157,3.58933835 58.9940956,4.0287985 60.7155193,4.8662069 L60.8801833,4.94827586 C60.9270391,4.97207405 60.9838467,4.95359134 61.008778,4.90643678 L62.6538493,1.91977011 C62.6675334,1.89587372 62.6709133,1.8672132 62.6631791,1.84065724 C62.6554449,1.81410128 62.6372936,1.79204347 62.6130754,1.77977011 L62.4374338,1.68965517 C59.9549287,0.534252874 57.6323829,0 55.1326273,0 C50.2805295,0 47.1440733,2.4137931 47.1440733,6.15356322 C47.1440733,10.4613793 50.6600407,11.8018391 54.4551527,12.6064368 C56.8451324,13.1133333 59.1598371,13.6154023 59.1598371,15.5802299 C59.1598371,17.7027586 56.8639511,18.1549425 54.9068024,18.1549425 C52.8383096,18.1549425 50.7635438,17.5337931 48.5617515,16.256092 L48.4927495,16.2142529 C48.470179,16.2003861 48.4430958,16.1964958 48.4176821,16.2034701 C48.3922684,16.2104443 48.3706934,16.2276878 48.3578819,16.2512644 L46.6547862,19.3554023 C46.6293572,19.4026962 46.6445302,19.462143 46.6892872,19.4905747 L46.7598574,19.534023 C49.2478925,20.9798806 52.0553651,21.7477281 54.9146436,21.7643678 C60.2278004,21.7643678 63.2748676,19.5002299 63.2748676,15.5512644 C63.2717312,10.6206897 59.021833,9.68413793 55.8822403,9.00183908 Z" id="Path"></path>
                        <path d="M75.6309369,17.8331034 C75.622432,17.8069536 75.6039158,17.7854854 75.5796542,17.773645 C75.5553927,17.7618045 75.5274782,17.760613 75.5023422,17.7703448 L75.2859267,17.8556322 C74.4343788,18.1935632 73.8478615,18.3383908 72.6199389,18.3383908 C71.1944196,18.3383908 70.2675967,17.5482759 70.2675967,16.3268966 L70.2675967,8.88436782 L75.3533605,8.88436782 C75.3794182,8.88479914 75.4045538,8.87447839 75.4231286,8.85572091 C75.4417034,8.83696343 75.4521622,8.81133957 75.4521589,8.7845977 L75.4521589,5.7737931 C75.4521589,5.71869159 75.4086274,5.67402299 75.3549287,5.67402299 L70.2738697,5.67402299 L70.2738697,1.7508046 C70.2738697,1.69570308 70.2303382,1.65103448 70.1766395,1.65103448 L66.453666,1.65103448 C66.4276049,1.65103448 66.4026334,1.66176308 66.3843534,1.6808231 C66.3660735,1.69988312 66.3560155,1.72567541 66.3564358,1.75241379 L66.3564358,5.67241379 L63.3172098,5.67241379 C63.2911487,5.67241031 63.2661772,5.68314239 63.2478972,5.70220241 C63.2296173,5.72126243 63.2195593,5.74705472 63.2199668,5.7737931 L63.2199668,8.79103448 C63.2195514,8.81805427 63.2298229,8.8440966 63.2484448,8.86320499 C63.2670668,8.88231339 63.2924461,8.89285323 63.318778,8.89241379 L66.3580041,8.89241379 L66.3580041,16.7356322 C66.3580041,19.8848276 68.4108147,21.7643678 71.8468024,21.7643678 C73.8431568,21.7643678 75.0099185,21.337931 76.2252953,20.8229885 L76.4558248,20.7216092 C76.5018247,20.7003364 76.5248127,20.6469152 76.5091446,20.5977011 L75.6309369,17.8331034 Z" id="Path"></path>
                        <path d="M33.4957841,0.442528736 L4.79720978,0.442528736 C2.07790224,0.442528736 0,2.70988506 0,5.50505747 L0,21.2542529 C0,21.3137981 0.0470420158,21.362069 0.105071283,21.362069 L3.81549898,21.362069 C3.87352825,21.362069 3.92057026,21.3137981 3.92057026,21.2542529 L3.92057026,5.27011494 L34.3739919,5.27011494 L34.3739919,21.2542529 C34.3739919,21.3137981 34.4210339,21.362069 34.4790631,21.362069 L38.1941955,21.362069 C38.2522248,21.362069 38.2992668,21.3137981 38.2992668,21.2542529 L38.2992668,5.50505747 C38.2992668,2.70988506 36.2260692,0.442528736 33.4957841,0.442528736 Z" id="Path"></path>
                        <path d="M93.0225866,18.4252874 L92.4329328,18.4252874 C91.7037067,18.4252874 91.3163544,18.0165517 91.3163544,17.2457471 L91.3163544,11.0149425 C91.3163544,7.15287356 89.2776578,5.27011494 85.0622607,5.27011494 C82.7373785,5.23123744 80.4334221,5.72605815 78.3188798,6.7183908 C78.2731073,6.73902741 78.2500474,6.79191975 78.2655601,6.84068966 L79.1955193,9.75655172 C79.2040242,9.78270153 79.2225404,9.80416972 79.246802,9.81601018 C79.2710635,9.82785064 79.298978,9.82904221 79.3241141,9.81931034 C81.3737882,8.98735632 83.2023422,8.53195402 84.4788798,8.53195402 C85.9279226,8.53195402 87.3989206,8.80712644 87.3989206,10.8411494 L87.3989206,11.7085057 C87.3989206,11.7085057 87.168391,11.7262069 82.5154582,12.1108046 C77.8625255,12.4954023 77.1834827,15.8393103 77.1834827,17.1942529 C77.1834827,19.8848276 79.2660896,21.765977 82.2488595,21.765977 C84.3257453,21.796149 86.3414384,21.0444903 87.9148676,19.6531034 L87.9148676,19.6531034 C88.2630143,20.4013793 89.2478615,21.6565517 91.9342363,21.6565517 L93.0319959,21.6565517 C93.0580536,21.656983 93.0831893,21.6466623 93.101764,21.6279048 C93.1203388,21.6091473 93.1307963,21.5835235 93.1307963,21.5567816 L93.1307963,18.5250575 C93.1309722,18.4965243 93.1192357,18.4692784 93.0985518,18.4502073 C93.0778678,18.4311362 93.050216,18.4220652 93.0225866,18.4252874 Z M87.3973523,16.9544828 C85.6723014,18.208046 84.445947,18.7245977 83.1866599,18.7245977 C81.8756212,18.7245977 80.9911405,18.0294253 80.9911405,16.9947126 C80.9911405,16.5554023 81.0413238,15.1747126 82.9028106,14.9301149 C84.7642974,14.6855172 87.3942159,14.3443678 87.3942159,14.3443678 L87.3973523,16.9544828 Z" id="Shape"></path>
                        <path d="M143.436415,11.8549425 C140.927251,11.4027586 139.68835,11.1645977 139.68835,9.95287356 C139.68835,9.23356322 140.020815,8.28252874 142.733849,8.28252874 C144.40627,8.28338372 146.051433,8.71731878 147.516945,9.54413793 L147.622016,9.60045977 C147.668528,9.62495069 147.725583,9.60802208 147.752179,9.56183908 L149.207495,6.96781609 C149.221073,6.94371727 149.224222,6.91489361 149.216181,6.88830801 C149.20814,6.86172241 149.189641,6.83979258 149.165153,6.82781609 L149.042831,6.76666667 C147.286415,5.93793103 145.602138,5.25402299 142.754236,5.25402299 C138.399267,5.25402299 135.999878,6.97908046 135.999878,10.1105747 C135.999878,13.6733333 139.227291,14.5229885 142.250835,15.037931 C144.926232,15.4933333 146.002037,15.8795402 146.002037,17.0912644 C146.002037,18.1951724 144.965438,18.7310345 142.7511,18.7310345 C140.712403,18.7310345 138.637637,17.8427586 137.248187,17.096092 L137.160367,17.0526437 C137.113449,17.0297172 137.057243,17.0480042 137.031772,17.0944828 L135.587434,19.7142529 C135.5746,19.7377131 135.571173,19.7655007 135.578236,19.7914711 C135.585299,19.8174415 135.602153,19.839455 135.625071,19.8526437 L135.711324,19.9009195 C137.985255,21.1094253 140.416008,21.7482759 142.7511,21.7482759 C147.309939,21.7482759 149.621508,20.0956322 149.621508,16.8337931 C149.623075,13.2790805 146.563462,12.4181609 143.436415,11.8549425 Z" id="Path"></path>
                        <path d="M103.432485,5.27011494 C101.661955,5.27011494 100.165866,5.87034483 98.7278004,7.15931034 L98.7278004,5.7737931 C98.7278004,5.71869159 98.684269,5.67402299 98.6305703,5.67402299 L94.9044603,5.67402299 C94.8783992,5.67401951 94.8534277,5.68475158 94.8351477,5.7038116 C94.8168678,5.72287162 94.8068098,5.74866391 94.8072173,5.7754023 L94.8072173,27.8921839 C94.8068019,27.9192037 94.8170734,27.945246 94.8356953,27.9643544 C94.8543173,27.9834628 94.8796966,27.9940027 94.9060285,27.9935764 L98.6258656,27.9935764 C98.6519233,27.9939945 98.6770589,27.9836738 98.6956337,27.9649163 C98.7142085,27.9461588 98.7246673,27.920535 98.724664,27.8937931 L98.724664,19.9282759 C100.093727,21.0965517 101.8078,21.765977 103.429348,21.765977 C107.588289,21.765977 110.486377,18.3754023 110.486377,13.5188506 C110.489511,8.89241379 107.389124,5.27011494 103.432485,5.27011494 Z M102.452342,18.3448276 C101.09112,18.3448276 99.9431772,17.6866667 98.7230957,16.2110345 L98.7230957,10.6866667 C99.9776782,9.30436782 101.133462,8.68965517 102.452342,8.68965517 C104.953666,8.68965517 106.568941,10.5852874 106.568941,13.5172414 C106.568941,16.4041379 104.91446,18.3448276 102.452342,18.3448276 Z" id="Shape"></path>
                        <rect id="Rectangle" x="112.606619" y="0.442528736" width="3.92057026" height="20.9195402" rx="0.0984375"></rect>
                        <path d="M132.515275,17.1170115 C132.488606,17.0699152 132.430435,17.0528608 132.383544,17.0783908 L132.256517,17.1491954 C130.987821,17.8331034 129.843014,18.5234483 127.438921,18.5234483 C124.830957,18.5234483 123.060428,17.0349425 122.706008,14.5422989 L133.751039,14.5422989 C133.777096,14.5427302 133.802232,14.5324094 133.820807,14.5136519 C133.839382,14.4948945 133.84984,14.4692706 133.849837,14.4425287 L133.849837,13.3466667 C133.849837,8.35816092 130.947047,5.27011494 126.273727,5.27011494 C121.796436,5.27011494 118.667821,8.71057471 118.667821,13.637931 C118.667821,18.4993103 122.050489,21.765977 127.084501,21.765977 C129.473686,21.7983558 131.824094,21.1445425 133.870224,19.8783908 L133.93609,19.8349425 C133.979724,19.8054775 133.993467,19.7462509 133.967454,19.6997701 L132.515275,17.1170115 Z M126.309796,8.52873563 C128.348493,8.52873563 129.603075,9.61655172 129.938676,11.6763218 L122.724827,11.6763218 C123.069837,9.64390805 124.343238,8.52873563 126.309796,8.52873563 Z" id="Shape"></path>
                        <path d="M153.861996,19.4422987 L153.705173,19.4422987 C153.690806,19.4422586 153.677568,19.4502853 153.670672,19.4632184 L152.90224,20.8245977 L152.183992,19.4712644 C152.176575,19.4580756 152.16276,19.4500633 152.147923,19.4503448 L151.961303,19.4503448 C151.938785,19.4503448 151.92053,19.4690768 151.92053,19.4921839 L151.92053,21.3314943 C151.92053,21.3546013 151.938785,21.3733333 151.961303,21.3733333 L152.190265,21.3733333 C152.212784,21.3733333 152.231039,21.3546013 152.231039,21.3314943 L152.231039,20.1712644 L152.828534,21.2816092 C152.835671,21.2943005 152.848758,21.3022359 152.863035,21.3025287 L152.921059,21.3025287 C152.935336,21.3022359 152.948423,21.2943005 152.95556,21.2816092 L153.582851,20.168046 L153.582851,21.3298851 C153.582851,21.3529921 153.601106,21.3717241 153.623625,21.3717241 L153.855723,21.3717241 C153.878242,21.3717241 153.8965,21.3529921 153.8965,21.3298851 L153.8965,19.4841379 C153.896738,19.4633276 153.882037,19.4454992 153.861996,19.4422987 L153.861996,19.4422987 Z" id="Path"></path>
                        <path d="M151.59277,19.4422989 L150.214297,19.4422989 C150.191779,19.4422989 150.173523,19.4610308 150.173523,19.4841379 L150.173523,19.6901149 C150.173523,19.713222 150.191779,19.731954 150.214297,19.731954 L150.745927,19.731954 L150.745927,21.3234483 C150.745927,21.3465554 150.764182,21.3652874 150.786701,21.3652874 L151.020367,21.3652874 C151.042885,21.3652874 151.061141,21.3465554 151.061141,21.3234483 L151.061141,19.731954 L151.595906,19.731954 C151.618425,19.731954 151.63668,19.713222 151.63668,19.6901149 L151.63668,19.4841379 C151.636714,19.4724607 151.63199,19.4613004 151.623651,19.4533545 C151.615312,19.4454087 151.604116,19.4414005 151.59277,19.4422989 L151.59277,19.4422989 Z" id="Path"></path>
                    </g>
                </g>
            </g>
        </g>
    </g>
</svg>